<?xml version="1.0" standalone="no"?>
<!DOCTYPE svg PUBLIC "-//W3C//DTD SVG 20010904//EN"
 "http://www.w3.org/TR/2001/REC-SVG-20010904/DTD/svg10.dtd">
<svg version="1.0" xmlns="http://www.w3.org/2000/svg"
 width="2748.000000pt" height="1760.000000pt" viewBox="0 0 2748.000000 1760.000000"
 preserveAspectRatio="xMidYMid meet">

<g transform="translate(0.000000,1760.000000) scale(0.100000,-0.100000)"
fill="#000000" stroke="none">
<path d="M20409 12772 c-2576 -2355 -4212 -3852 -4249 -3888 l-45 -44 966 0
965 0 1270 1161 c698 639 1388 1271 1534 1404 146 133 445 407 664 608 l400
365 55 -42 c31 -24 1222 -933 2646 -2021 1425 -1088 2628 -2008 2675 -2043 47
-36 76 -56 65 -45 -11 12 -1210 1059 -2664 2327 l-2643 2306 -772 0 -771 0
-96 -88z"/>
<path d="M6485 5299 c-290 -37 -521 -189 -625 -410 -76 -162 -80 -387 -10
-572 47 -126 178 -281 312 -369 90 -60 194 -113 323 -163 358 -141 495 -260
495 -432 0 -211 -152 -313 -448 -301 -226 10 -355 84 -421 241 -33 82 -40 233
-16 361 9 48 15 89 13 91 -2 1 -76 -14 -165 -34 l-163 -36 -2 -55 c-16 -428
151 -647 562 -736 67 -15 129 -19 295 -19 184 0 221 3 297 22 220 56 386 167
489 326 101 156 133 376 84 568 -72 278 -358 520 -795 674 -144 50 -315 136
-373 185 -26 23 -59 63 -75 88 -23 40 -27 58 -26 117 1 125 66 206 196 247
137 42 384 26 499 -33 145 -73 218 -237 190 -425 -6 -42 -9 -79 -7 -82 3 -2
74 9 158 25 l153 29 -4 79 c-11 248 -127 440 -322 533 -166 79 -392 109 -614
81z"/>
<path d="M1800 4085 l0 -1185 830 0 830 0 0 120 0 120 -485 0 -485 0 0 1065 0
1065 -345 0 -345 0 0 -1185z"/>
<path d="M3600 4085 l0 -1185 345 0 345 0 0 464 0 464 47 52 c37 41 48 49 58
38 7 -7 132 -239 279 -515 l268 -503 380 0 c329 0 379 2 375 15 -4 8 -198 370
-432 806 -234 436 -424 798 -421 805 3 7 130 171 284 366 153 194 282 359 286
366 6 9 -27 12 -152 12 l-158 0 -405 -525 -404 -524 -3 524 -2 525 -345 0
-345 0 0 -1185z"/>
<path d="M9360 5265 c0 -5 -675 -2292 -690 -2338 l-9 -28 136 3 136 3 52 180
c29 99 62 213 74 253 l22 72 357 0 357 0 70 -255 70 -255 342 0 c189 0 343 3
343 8 0 4 -147 537 -327 1185 l-327 1177 -303 0 c-167 0 -303 -2 -303 -5z
m230 -1087 c73 -277 135 -509 138 -515 3 -10 -59 -13 -288 -13 -230 0 -291 3
-287 13 2 6 69 238 148 515 79 276 146 502 149 502 3 0 66 -226 140 -502z"/>
<path d="M10810 4085 l0 -1185 830 0 831 0 -3 118 -3 117 -482 3 -483 2 -2
1063 -3 1062 -342 3 -343 2 0 -1185z"/>
<path d="M13510 4085 l0 -1185 345 0 345 0 0 590 0 590 280 0 280 0 0 -590 0
-590 340 0 340 0 0 1185 0 1185 -340 0 -340 0 0 -475 0 -475 -280 0 -280 0 0
475 0 475 -345 0 -345 0 0 -1185z"/>
<path d="M15850 4085 l0 -1185 345 0 345 0 0 1185 0 1185 -345 0 -345 0 0
-1185z"/>
<path d="M16950 4085 l0 -1185 345 0 345 0 0 466 0 467 42 46 c23 25 45 47 49
49 4 2 126 -221 273 -496 146 -274 272 -506 279 -515 11 -16 44 -17 390 -15
l377 3 -434 808 -435 808 294 372 294 372 -151 3 c-84 1 -157 1 -163 -2 -6 -2
-191 -237 -410 -522 l-400 -518 -5 519 -5 520 -342 3 -343 2 0 -1185z"/>
<path d="M19220 4085 l0 -1185 110 0 110 0 0 802 c0 441 3 798 7 795 3 -4 111
-364 238 -800 l231 -792 193 0 193 0 227 808 226 809 3 -811 2 -811 330 0 330
0 0 1185 0 1185 -349 0 c-324 0 -350 -1 -355 -17 -3 -10 -87 -306 -186 -658
-223 -791 -210 -748 -215 -744 -2 2 -85 292 -184 644 -100 352 -191 670 -202
708 l-20 67 -344 0 -345 0 0 -1185z"/>
<path d="M21971 4147 c-182 -618 -340 -1151 -351 -1186 l-18 -62 135 3 136 3
59 200 c32 110 65 224 73 253 l16 52 357 0 358 0 69 -255 70 -255 343 0 344 0
-4 23 c-3 12 -150 545 -328 1185 l-323 1162 -302 0 -302 0 -332 -1123z m693
-469 l6 -28 -290 0 c-273 0 -291 1 -286 18 3 9 69 238 146 507 78 270 143 497
146 505 5 11 209 -729 278 -1002z"/>
<path d="M23750 4085 l0 -1185 345 0 345 0 0 590 0 590 275 0 275 0 0 -590 0
-590 345 0 345 0 0 1185 0 1185 -345 0 -345 0 0 -475 0 -475 -275 0 -275 0 0
475 0 475 -345 0 -345 0 0 -1185z"/>
<path d="M12430 3805 l0 -225 425 0 425 0 0 225 0 225 -425 0 -425 0 0 -225z"/>
</g>
</svg>
